<svg width="130" height="35" viewBox="0 0 130 35" fill="none" xmlns="http://www.w3.org/2000/svg">
<g clip-path="url(#clip0_85_110)">
<path d="M40.444 29H40V26H42V29H41.5562V26.4728H40.444V29Z" fill="black"/>
<path d="M45.5512 30H45V26.0659H45.5394V26.4835H45.5572C45.6679 26.3297 45.8142 26.2106 45.996 26.1264C46.1777 26.0422 46.3715 26 46.5769 26C46.7905 26 46.9841 26.0366 47.1581 26.1098C47.3359 26.1794 47.486 26.2765 47.6087 26.401C47.7351 26.5257 47.832 26.6721 47.8992 26.8407C47.9663 27.0055 48 27.1832 48 27.3735C48 27.5641 47.9663 27.7435 47.8992 27.9121C47.832 28.0769 47.7351 28.2216 47.6087 28.3461C47.486 28.4708 47.3359 28.5696 47.1581 28.6428C46.9841 28.7161 46.7884 28.7527 46.5711 28.7527C46.3773 28.7527 46.1896 28.7124 46.0078 28.6319C45.8261 28.5513 45.6797 28.434 45.5691 28.2802H45.5512V30ZM47.4425 27.3735C47.4425 27.2454 47.4209 27.1246 47.3775 27.0109C47.338 26.8937 47.2766 26.7929 47.1937 26.7087C47.1107 26.6209 47.0098 26.5513 46.8913 26.5C46.7726 26.4488 46.6362 26.4232 46.4821 26.4232C46.3399 26.4232 46.2074 26.4488 46.085 26.5C45.9662 26.5476 45.8635 26.6153 45.7766 26.7033C45.6897 26.7876 45.6225 26.8883 45.5751 27.0055C45.5275 27.119 45.5038 27.2417 45.5038 27.3735C45.5038 27.5055 45.5275 27.63 45.5751 27.7472C45.6225 27.8609 45.6897 27.9615 45.7766 28.0495C45.8635 28.1337 45.9662 28.2014 46.085 28.2528C46.2074 28.3004 46.3399 28.3241 46.4821 28.3241C46.6362 28.3241 46.7726 28.2985 46.8913 28.2472C47.0098 28.196 47.1107 28.1281 47.1937 28.0439C47.2766 27.9561 47.338 27.8553 47.3775 27.7418C47.4209 27.6244 47.4425 27.5019 47.4425 27.3735Z" fill="black"/>
<path d="M52 27.5C52 27.7192 51.961 27.9204 51.8831 28.1036C51.8091 28.287 51.7038 28.4463 51.5672 28.5817C51.4347 28.7133 51.2768 28.8168 51.0937 28.8925C50.9103 28.9642 50.7116 29 50.497 29C50.2827 29 50.0837 28.9642 49.9006 28.8925C49.7213 28.8168 49.5634 28.7133 49.4268 28.5817C49.2943 28.4463 49.1891 28.287 49.1112 28.1036C49.0371 27.9204 49 27.7192 49 27.5C49 27.281 49.0371 27.0798 49.1112 26.8964C49.1891 26.7132 49.2943 26.5558 49.4268 26.4244C49.5634 26.289 49.7213 26.1853 49.9006 26.1136C50.0837 26.0379 50.2827 26 50.497 26C50.7116 26 50.9103 26.0379 51.0937 26.1136C51.2768 26.1853 51.4347 26.289 51.5672 26.4244C51.7038 26.5558 51.8091 26.7132 51.8831 26.8964C51.961 27.0798 52 27.281 52 27.5ZM51.4503 27.5C51.4503 27.3566 51.4269 27.2231 51.3802 27.0997C51.3373 26.9723 51.275 26.8627 51.1931 26.7711C51.1111 26.6753 51.0118 26.6017 50.8947 26.55C50.7778 26.4942 50.6453 26.4663 50.497 26.4663C50.3489 26.4663 50.2164 26.4942 50.0993 26.55C49.9824 26.6017 49.883 26.6753 49.8011 26.7711C49.7193 26.8627 49.6569 26.9723 49.6141 27.0997C49.5712 27.2231 49.5497 27.3566 49.5497 27.5C49.5497 27.6396 49.5712 27.7729 49.6141 27.9005C49.6569 28.024 49.7193 28.1336 49.8011 28.2291C49.883 28.3207 49.9824 28.3945 50.0993 28.4503C50.2164 28.506 50.3489 28.5339 50.497 28.5339C50.6453 28.5339 50.7778 28.506 50.8947 28.4503C51.0118 28.3945 51.1111 28.3207 51.1931 28.2291C51.275 28.1336 51.3373 28.024 51.3802 27.9005C51.4269 27.7729 51.4503 27.6396 51.4503 27.5Z" fill="black"/>
<path d="M55.7157 26.6139C55.9041 26.6139 56.077 26.6541 56.2345 26.7341C56.3921 26.8101 56.5274 26.9161 56.6404 27.052C56.7534 27.184 56.8407 27.342 56.9024 27.5261C56.9674 27.706 57 27.9001 57 28.1079C57 28.3241 56.9674 28.524 56.9024 28.7081C56.8407 28.888 56.7534 29.0439 56.6404 29.1761C56.5274 29.308 56.3921 29.4119 56.2345 29.4879C56.077 29.5641 55.9041 29.6041 55.7157 29.6081V31H55.2739V29.6081C55.0925 29.6041 54.923 29.5641 54.7653 29.4879C54.6113 29.4119 54.4778 29.308 54.3646 29.1761C54.2517 29.0399 54.1627 28.8821 54.0976 28.702C54.0324 28.5181 54 28.3201 54 28.1079C54 27.8961 54.0308 27.6999 54.0924 27.52C54.1575 27.3401 54.2466 27.184 54.3596 27.052C54.4726 26.9161 54.6061 26.8101 54.7603 26.7341C54.9177 26.6581 55.0891 26.6182 55.2739 26.6139V25H55.7157V26.6139ZM56.5222 28.1079C56.5222 27.964 56.5033 27.83 56.4656 27.706C56.4314 27.5821 56.3801 27.4739 56.3116 27.382C56.2432 27.286 56.1576 27.2101 56.0547 27.1541C55.9554 27.0981 55.8425 27.068 55.7157 27.064V29.1521C55.8425 29.1481 55.9554 29.1201 56.0547 29.0681C56.1576 29.0119 56.2432 28.9381 56.3116 28.8461C56.3801 28.7499 56.4314 28.6401 56.4656 28.516C56.5033 28.388 56.5222 28.2521 56.5222 28.1079ZM54.4726 28.1079C54.4726 28.2521 54.4897 28.388 54.5239 28.516C54.5616 28.6401 54.6147 28.7499 54.6832 28.8461C54.755 28.9381 54.8408 29.0119 54.9401 29.0681C55.0393 29.1201 55.1507 29.1481 55.2739 29.1521V27.064C55.1473 27.068 55.0343 27.0981 54.9348 27.1541C54.8356 27.2061 54.7516 27.2799 54.6832 27.3761C54.6147 27.468 54.5616 27.5781 54.5239 27.706C54.4897 27.83 54.4726 27.964 54.4726 28.1079Z" fill="black"/>
<path d="M61.4316 27.255C61.4232 27.0161 61.3433 26.8188 61.1917 26.6633C61.04 26.508 60.8232 26.4303 60.5412 26.4303C60.4105 26.4303 60.2885 26.4542 60.1748 26.5022C60.0654 26.546 59.9686 26.6057 59.8842 26.6814C59.8001 26.757 59.7307 26.8446 59.6758 26.9444C59.6253 27.0439 59.5958 27.1475 59.5874 27.255H61.4316ZM62 27.4463C62 27.4782 62 27.5119 62 27.5478C62 27.5799 61.998 27.6136 61.9938 27.6494H59.5874C59.5916 27.7769 59.6191 27.8965 59.6696 28.008C59.7243 28.1156 59.7959 28.2092 59.8842 28.2889C59.9728 28.3685 60.0758 28.4322 60.1939 28.4802C60.3159 28.528 60.4444 28.5519 60.5791 28.5519C60.7895 28.5519 60.9685 28.5081 61.1158 28.4203C61.2675 28.3287 61.3833 28.2252 61.4633 28.1097L61.8864 28.3964C61.718 28.6077 61.5242 28.7611 61.3054 28.8566C61.0863 28.9522 60.8442 29 60.5791 29C60.3558 29 60.1474 28.9642 59.9538 28.8925C59.7602 28.8208 59.5916 28.7192 59.4485 28.5877C59.3097 28.4563 59.2 28.2989 59.1201 28.1156C59.0401 27.9324 59 27.7291 59 27.5061C59 27.2869 59.0381 27.0856 59.1139 26.9025C59.1938 26.7153 59.3032 26.5558 59.4421 26.4244C59.5812 26.289 59.7434 26.1853 59.9285 26.1136C60.1179 26.0379 60.3221 26 60.5412 26C60.7727 26 60.9791 26.0379 61.1601 26.1136C61.341 26.1853 61.4928 26.2869 61.6148 26.4183C61.7411 26.546 61.8359 26.6973 61.899 26.8725C61.9663 27.0479 62 27.2391 62 27.4463Z" fill="black"/>
<path d="M64.6934 26.8008C64.6445 26.7013 64.5729 26.6216 64.4782 26.5619C64.3867 26.4982 64.2875 26.4663 64.1807 26.4663C64.0679 26.4663 63.9656 26.4942 63.8742 26.55C63.7825 26.6017 63.7048 26.6734 63.6406 26.765C63.5766 26.8566 63.5263 26.9662 63.4896 27.0936C63.456 27.2213 63.4393 27.3566 63.4393 27.5C63.4393 27.6436 63.456 27.779 63.4896 27.9064C63.5263 28.034 63.5766 28.1434 63.6406 28.2352C63.7048 28.3268 63.7825 28.4004 63.8742 28.4563C63.9656 28.5081 64.0679 28.5339 64.1807 28.5339C64.2997 28.5339 64.4035 28.5041 64.492 28.4442C64.5835 28.3844 64.6583 28.3048 64.7162 28.2053L65 28.54C64.9055 28.6793 64.7894 28.7908 64.6522 28.8745C64.518 28.9583 64.3592 29 64.1762 29C64.0022 29 63.8421 28.9642 63.6957 28.8925C63.5522 28.8168 63.4286 28.7133 63.3249 28.5817C63.2242 28.4463 63.1448 28.287 63.0868 28.1036C63.0289 27.9204 63 27.7192 63 27.5C63 27.281 63.0289 27.0798 63.0868 26.8964C63.1448 26.7132 63.2242 26.5558 63.3249 26.4244C63.4286 26.289 63.5522 26.1853 63.6957 26.1136C63.8421 26.0379 64.0022 26 64.1762 26C64.3257 26 64.4751 26.04 64.6247 26.1197C64.7742 26.1993 64.8947 26.3148 64.9862 26.4663L64.6934 26.8008Z" fill="black"/>
<path d="M68.6934 26.8008C68.6446 26.7013 68.5729 26.6216 68.4783 26.5619C68.3867 26.4982 68.2876 26.4663 68.1807 26.4663C68.0679 26.4663 67.9656 26.4942 67.8742 26.55C67.7827 26.6017 67.7048 26.6734 67.6408 26.765C67.5767 26.8566 67.5263 26.9662 67.4897 27.0936C67.4562 27.2213 67.4393 27.3566 67.4393 27.5C67.4393 27.6436 67.4562 27.779 67.4897 27.9064C67.5263 28.034 67.5767 28.1434 67.6408 28.2352C67.7048 28.3268 67.7827 28.4004 67.8742 28.4563C67.9656 28.5081 68.0679 28.5339 68.1807 28.5339C68.2998 28.5339 68.4035 28.5041 68.492 28.4442C68.5836 28.3844 68.6583 28.3048 68.7162 28.2053L69 28.54C68.9055 28.6793 68.7896 28.7908 68.6522 28.8745C68.518 28.9583 68.3592 29 68.1762 29C68.0022 29 67.8421 28.9642 67.6957 28.8925C67.5522 28.8168 67.4287 28.7133 67.3249 28.5817C67.2242 28.4463 67.1449 28.287 67.087 28.1036C67.0289 27.9204 67 27.7192 67 27.5C67 27.281 67.0289 27.0798 67.087 26.8964C67.1449 26.7132 67.2242 26.5558 67.3249 26.4244C67.4287 26.289 67.5522 26.1853 67.6957 26.1136C67.8421 26.0379 68.0022 26 68.1762 26C68.3257 26 68.4753 26.04 68.6247 26.1197C68.7743 26.1993 68.8947 26.3148 68.9864 26.4663L68.6934 26.8008Z" fill="black"/>
<path d="M73.3841 26.7499L71.6157 29H71V26H71.6157V28.1868L73.3841 26H74V29H73.3841V26.7499Z" fill="black"/>
<path d="M78.3843 26.7499L76.6159 29H76V26H76.6159V28.1868L78.3843 26H79V29H78.3843V26.7499Z" fill="black"/>
<path d="M85.3843 26.7499L83.6157 29H83V26H83.6157V28.1868L85.3843 26H86V29H85.3843V26.7499Z" fill="black"/>
<path d="M90 26H92V26.4728H91.2009V29H90.756V26.4728H90V26Z" fill="black"/>
<path d="M95.4316 27.255C95.4232 27.0161 95.343 26.8188 95.1915 26.6633C95.04 26.508 94.8232 26.4303 94.541 26.4303C94.4105 26.4303 94.2885 26.4542 94.1746 26.5022C94.0652 26.546 93.9684 26.6057 93.8842 26.6814C93.8001 26.757 93.7305 26.8446 93.6758 26.9444C93.6253 27.0439 93.5958 27.1475 93.5874 27.255H95.4316ZM96 27.4463C96 27.4782 96 27.5119 96 27.5478C96 27.5799 95.9978 27.6136 95.9936 27.6494H93.5874C93.5916 27.7769 93.6189 27.8965 93.6694 28.008C93.7241 28.1156 93.7959 28.2092 93.8842 28.2889C93.9726 28.3685 94.0758 28.4322 94.1937 28.4802C94.3157 28.528 94.4442 28.5519 94.5789 28.5519C94.7895 28.5519 94.9685 28.5081 95.1158 28.4203C95.2673 28.3287 95.3831 28.2252 95.4631 28.1097L95.8864 28.3964C95.7178 28.6077 95.5242 28.7611 95.3051 28.8566C95.0863 28.9522 94.8442 29 94.5789 29C94.3558 29 94.1474 28.9642 93.9536 28.8925C93.76 28.8208 93.5916 28.7192 93.4483 28.5877C93.3094 28.4563 93.2 28.2989 93.1201 28.1156C93.0399 27.9324 93 27.7291 93 27.5061C93 27.2869 93.0379 27.0856 93.1136 26.9025C93.1936 26.7153 93.3032 26.5558 93.4421 26.4244C93.581 26.289 93.7431 26.1853 93.9283 26.1136C94.1179 26.0379 94.3221 26 94.541 26C94.7727 26 94.9789 26.0379 95.1598 26.1136C95.341 26.1853 95.4925 26.2869 95.6146 26.4183C95.7411 26.546 95.8356 26.6973 95.899 26.8725C95.9663 27.0479 96 27.2391 96 27.4463Z" fill="black"/>
<path d="M98.1509 27.4433L97.0797 26H97.7775L98.506 27.0525L99.2345 26H99.9019L98.8427 27.4307L100 29H99.2957L98.4938 27.8403L97.6733 29H97L98.1509 27.4433Z" fill="black"/>
<path d="M102.436 29H102V26H102.436V27.1849H103.564V26H104V29H103.564V27.6575H102.436V29Z" fill="black"/>
<path d="M109 27.5C109 27.7192 108.961 27.9204 108.883 28.1036C108.809 28.287 108.704 28.4463 108.567 28.5817C108.435 28.7133 108.277 28.8168 108.094 28.8925C107.91 28.9642 107.711 29 107.497 29C107.283 29 107.084 28.9642 106.901 28.8925C106.721 28.8168 106.563 28.7133 106.427 28.5817C106.294 28.4463 106.189 28.287 106.111 28.1036C106.037 27.9204 106 27.7192 106 27.5C106 27.281 106.037 27.0798 106.111 26.8964C106.189 26.7132 106.294 26.5558 106.427 26.4244C106.563 26.289 106.721 26.1853 106.901 26.1136C107.084 26.0379 107.283 26 107.497 26C107.711 26 107.91 26.0379 108.094 26.1136C108.277 26.1853 108.435 26.289 108.567 26.4244C108.704 26.5558 108.809 26.7132 108.883 26.8964C108.961 27.0798 109 27.281 109 27.5ZM108.45 27.5C108.45 27.3566 108.427 27.2231 108.38 27.0997C108.337 26.9723 108.275 26.8627 108.193 26.7711C108.111 26.6753 108.012 26.6017 107.895 26.55C107.778 26.4942 107.645 26.4663 107.497 26.4663C107.349 26.4663 107.216 26.4942 107.099 26.55C106.983 26.6017 106.883 26.6753 106.801 26.7711C106.719 26.8627 106.657 26.9723 106.614 27.0997C106.571 27.2231 106.55 27.3566 106.55 27.5C106.55 27.6396 106.571 27.7729 106.614 27.9005C106.657 28.024 106.719 28.1336 106.801 28.2291C106.883 28.3207 106.983 28.3945 107.099 28.4503C107.216 28.506 107.349 28.5339 107.497 28.5339C107.645 28.5339 107.778 28.506 107.895 28.4503C108.012 28.3945 108.111 28.3207 108.193 28.2291C108.275 28.1336 108.337 28.024 108.38 27.9005C108.427 27.7729 108.45 27.6396 108.45 27.5Z" fill="black"/>
<path d="M112.402 29L111.528 26.6996L110.61 29H110L111.244 26H111.83L113 29H112.402Z" fill="black"/>
<path d="M118 27.5C118 27.7192 117.961 27.9204 117.883 28.1036C117.809 28.287 117.704 28.4463 117.567 28.5817C117.435 28.7133 117.277 28.8168 117.094 28.8925C116.91 28.9642 116.711 29 116.497 29C116.283 29 116.084 28.9642 115.901 28.8925C115.721 28.8168 115.563 28.7133 115.427 28.5817C115.294 28.4463 115.189 28.287 115.111 28.1036C115.037 27.9204 115 27.7192 115 27.5C115 27.281 115.037 27.0798 115.111 26.8964C115.189 26.7132 115.294 26.5558 115.427 26.4244C115.563 26.289 115.721 26.1853 115.901 26.1136C116.084 26.0379 116.283 26 116.497 26C116.711 26 116.91 26.0379 117.094 26.1136C117.277 26.1853 117.435 26.289 117.567 26.4244C117.704 26.5558 117.809 26.7132 117.883 26.8964C117.961 27.0798 118 27.281 118 27.5ZM117.45 27.5C117.45 27.3566 117.427 27.2231 117.38 27.0997C117.337 26.9723 117.275 26.8627 117.193 26.7711C117.111 26.6753 117.012 26.6017 116.895 26.55C116.778 26.4942 116.645 26.4663 116.497 26.4663C116.349 26.4663 116.216 26.4942 116.099 26.55C115.983 26.6017 115.883 26.6753 115.801 26.7711C115.719 26.8627 115.657 26.9723 115.614 27.0997C115.571 27.2231 115.55 27.3566 115.55 27.5C115.55 27.6396 115.571 27.7729 115.614 27.9005C115.657 28.024 115.719 28.1336 115.801 28.2291C115.883 28.3207 115.983 28.3945 116.099 28.4503C116.216 28.506 116.349 28.5339 116.497 28.5339C116.645 28.5339 116.778 28.506 116.895 28.4503C117.012 28.3945 117.111 28.3207 117.193 28.2291C117.275 28.1336 117.337 28.024 117.38 27.9005C117.427 27.7729 117.45 27.6396 117.45 27.5Z" fill="black"/>
<path d="M119.608 29H119V26H121V26.4728H119.608V29Z" fill="black"/>
<path d="M125.384 26.7499L123.616 29H123V26H123.616V28.1868L125.384 26H126V29H125.384V26.7499Z" fill="black"/>
<path d="M129.384 26.7499L127.616 29H127V26H127.616V28.1868L129.384 26H130V29H129.384V26.7499Z" fill="black"/>
<path fill-rule="evenodd" clip-rule="evenodd" d="M26.8882 0C29.7113 0 32 2.47946 32 5.538V29.27C31.8453 30.1342 30.9109 30.6446 30.0425 30.3509C29.6071 30.2037 29.3019 29.8955 29.1268 29.4267L29.1102 29.381L29.094 29.2753C29.0799 29.1796 29.0726 29.1134 29.072 29.0767C29.0681 28.4526 29.0659 27.8298 29.0655 27.2081C29.0692 25.5216 29.0677 25.4431 29.0607 23.7592C29.0592 23.4116 28.9816 23.1263 28.8283 22.9031C28.0353 21.7497 26.2032 22.2748 26.1875 23.6883C26.1796 24.404 26.1814 24.5104 26.1929 27.2211C26.1998 27.924 26.1988 28.6276 26.1901 29.3319C26.1867 29.5735 26.233 29.8239 26.329 30.0834L26.3488 30.1355C26.454 30.513 26.6126 30.8614 26.8251 31.1805C27.3699 32.0003 28.15 32.6447 29.0813 32.9784C29.5812 33.1575 30.0917 33.2581 30.6015 33.2675C29.6698 34.3343 28.3508 35 26.8882 35H26.7321C26.1537 34.6374 25.622 34.199 25.1536 33.6992C24.2955 32.7832 23.7102 31.7136 23.3976 30.4907C23.2995 30.1301 23.2506 29.8141 23.2512 29.5432C23.256 27.8076 23.2572 26.0719 23.255 24.3366C23.2607 22.4223 23.2605 20.5081 23.2542 18.5944C23.2532 18.2478 23.2303 18.0035 23.1856 17.8614C23.0534 17.44 22.7826 17.1391 22.3734 16.9586C21.5975 16.6164 20.6979 17.0487 20.4536 17.7953C20.4049 17.9442 20.3802 18.2328 20.3796 18.6611C20.3761 20.5673 20.3761 22.4734 20.3796 24.3794C20.3838 26.0186 20.3838 27.6578 20.3796 29.2968C20.3782 29.9297 20.4481 30.5519 20.5891 31.1633C20.8338 32.1559 21.1865 33.0403 21.6468 33.8166C21.8935 34.2323 22.1662 34.6268 22.4649 35H17.4224C17.4372 31.0141 17.464 23.6145 17.4614 19.2923C17.4609 19.0219 17.4787 18.6351 17.4489 18.2998C17.456 18.2337 17.4595 18.1643 17.4595 18.0916C17.4595 17.2275 17.4591 14.3371 17.4585 12.5836C17.4585 12.0756 17.4748 11.7538 17.2437 11.4016C16.9512 10.9553 16.5396 10.7358 16.009 10.743C15.3923 10.7509 14.8424 11.1382 14.6496 11.692C14.6026 11.8273 14.5791 12.0951 14.5791 12.4952C14.5791 13.9201 14.5804 16.9238 14.5829 18.3433C14.5542 18.609 14.5694 18.9009 14.5694 19.124C14.569 23.7279 14.5408 31.0463 14.5237 35H9.70221C9.98063 34.6497 10.2361 34.2808 10.4686 33.8933C10.9331 33.1196 11.2888 32.2379 11.5356 31.2486C11.6779 30.6392 11.7483 30.0191 11.7471 29.3882C11.7429 27.7545 11.7429 26.1205 11.7471 24.4864C11.7506 22.5867 11.7506 20.6868 11.7471 18.7867C11.7464 18.3598 11.7215 18.0721 11.6723 17.9237C11.4258 17.1795 10.5185 16.7486 9.73594 17.0896C9.32293 17.2695 9.04977 17.5696 8.91647 17.9896C8.87139 18.1312 8.8484 18.3747 8.84743 18.7202C8.84104 20.6278 8.84066 22.5357 8.84642 24.4438C8.84419 26.1736 8.84545 27.9036 8.85026 29.6338C8.85089 29.9037 8.80176 30.2185 8.70265 30.5782C8.38746 31.7972 7.79698 32.8632 6.9313 33.7764C6.49024 34.2413 5.99344 34.6532 5.45468 35H5.11184C3.68509 35 2.39503 34.3665 1.46774 33.3454C1.9714 33.3325 2.47566 33.2327 2.96953 33.0579C3.90887 32.7254 4.69574 32.0831 5.24526 31.2658C5.44606 30.9676 5.59942 30.6438 5.70525 30.2943L5.72582 30.224L5.74582 30.1722C5.84255 29.9135 5.88919 29.6639 5.88589 29.4233C5.87693 28.7209 5.87604 28.0196 5.88308 27.3192C5.89459 24.6171 5.89635 24.511 5.88836 23.7976C5.8725 22.3887 4.02441 21.8653 3.22459 23.0152C3.06988 23.2374 2.99171 23.5219 2.9901 23.8683C2.98306 25.547 2.98154 25.6249 2.98538 27.3061C2.98506 27.9257 2.98278 28.5467 2.97863 29.1689C2.97816 29.2052 2.97086 29.2712 2.95671 29.3667L2.94029 29.472C2.76672 29.9649 2.45327 30.2873 2 30.4388C1.04144 30.7593 0.00281025 30.1197 0.00281025 29.1089V26.8876C0.0026088 26.8523 0.00154141 26.8177 0 26.7837V5.538C0 2.47946 2.28867 0 5.11184 0H26.8882ZM4.39847 17.8289C3.91611 17.8289 3.45349 18.0159 3.11241 18.3486C2.77132 18.6813 2.57971 19.1326 2.57969 19.6032C2.57969 20.0736 2.77131 20.5251 3.11241 20.8579C3.45349 21.1904 3.91611 21.3773 4.39847 21.3773C4.88086 21.3773 5.34347 21.1904 5.68456 20.8579C6.02566 20.5251 6.21728 20.0736 6.21728 19.6032C6.21726 19.1326 6.02564 18.6813 5.68456 18.3486C5.34347 18.0159 4.88086 17.8289 4.39847 17.8289ZM27.6646 17.7002C27.1865 17.7002 26.7278 17.8877 26.3895 18.2215C26.0514 18.5553 25.8615 19.0081 25.8615 19.4802C25.8615 19.9524 26.0514 20.405 26.3895 20.7388C26.7278 21.0727 27.1865 21.2602 27.6646 21.2602C28.1429 21.2602 28.6014 21.0727 28.9395 20.7388C29.2777 20.405 29.4676 19.9524 29.4676 19.4802C29.4676 19.0081 29.2777 18.5553 28.9395 18.2215C28.6014 17.8877 28.1429 17.7002 27.6646 17.7002ZM10.5916 12.4473C10.3555 12.4057 10.1135 12.4099 9.87947 12.4597C9.64546 12.5095 9.42391 12.6039 9.2276 12.7375C9.03133 12.8711 8.86407 13.0413 8.73537 13.2383C8.60668 13.4353 8.51901 13.6554 8.4775 13.8859C8.436 14.1164 8.44146 14.3529 8.49347 14.5817C8.54545 14.8106 8.64297 15.0274 8.78055 15.2198C8.91815 15.4122 9.09305 15.5765 9.29527 15.7031C9.49751 15.8298 9.72318 15.9163 9.95928 15.9579C10.1954 15.9995 10.4374 15.9953 10.6714 15.9455C10.9054 15.8957 11.1269 15.8013 11.3231 15.6677C11.5195 15.5341 11.6868 15.3639 11.8155 15.1669C11.9442 14.9698 12.0317 14.7498 12.0733 14.5193C12.1148 14.2888 12.1094 14.0523 12.0574 13.8235C12.0054 13.5946 11.9078 13.3777 11.7702 13.1852C11.6326 12.9929 11.4577 12.8287 11.2555 12.7021C11.0533 12.5755 10.8277 12.4889 10.5916 12.4473ZM22.2309 12.3137C21.9989 12.2637 21.7592 12.2594 21.5249 12.3011C21.2909 12.3429 21.0672 12.4298 20.8668 12.5568C20.6663 12.6838 20.493 12.8485 20.3565 13.0415C20.2202 13.2346 20.1233 13.4521 20.0718 13.6817C20.0202 13.9114 20.0149 14.1486 20.056 14.3799C20.0971 14.6111 20.1842 14.8318 20.3116 15.0295C20.4392 15.2272 20.6051 15.398 20.7998 15.532C20.9944 15.666 21.214 15.7607 21.4458 15.8107C21.6779 15.8606 21.9178 15.8648 22.1518 15.8231C22.3858 15.7814 22.6095 15.6946 22.8101 15.5675C23.0105 15.4405 23.184 15.2757 23.3203 15.0827C23.4568 14.8896 23.5535 14.6721 23.6051 14.4425C23.6566 14.2129 23.6619 13.9757 23.6207 13.7444C23.5796 13.5132 23.4928 13.2924 23.3652 13.0947C23.2376 12.897 23.0716 12.7264 22.8772 12.5923C22.6825 12.4583 22.463 12.3636 22.2309 12.3137ZM15.8814 6.13637C15.392 6.13637 14.9228 6.32604 14.5767 6.66359C14.2307 7.00115 14.0363 7.45895 14.0363 7.93634C14.0363 8.41372 14.2307 8.87154 14.5767 9.20909C14.9228 9.54663 15.392 9.73631 15.8814 9.73633C16.3707 9.73633 16.8401 9.54665 17.1861 9.20909C17.5321 8.87154 17.7266 8.41372 17.7266 7.93634C17.7266 7.45897 17.5321 7.00115 17.1861 6.66359C16.8401 6.32602 16.3707 6.13637 15.8814 6.13637Z" fill="url(#paint0_radial_85_110)"/>
<path d="M46.0095 6.00066C47.8638 6.0026 49.7673 6.00847 51.7204 6.01826C51.7946 6.01864 51.8655 6.05047 51.918 6.10682C51.9703 6.16314 51.9998 6.2394 51.9998 6.31888C52.0007 12.9884 51.9985 18.0966 51.993 21.6435C51.993 21.9061 51.7532 22.0027 51.5121 21.9999C51.1639 21.9949 50.5144 21.9925 49.5636 21.9925C49.337 21.9925 49.2243 21.863 49.2253 21.604C49.2298 16.6258 49.2372 12.4038 49.2472 8.93799C49.247 8.91494 49.2408 8.89249 49.2291 8.87345C49.2173 8.8544 49.2007 8.83963 49.1813 8.83095C49.1586 8.82019 49.1224 8.81481 49.0731 8.81481C47.6263 8.81971 46.6041 8.82165 46.0067 8.82069C45.4093 8.82069 44.3877 8.81726 42.9416 8.81042C42.8914 8.80944 42.8549 8.81433 42.8321 8.82508C42.8127 8.83376 42.796 8.84855 42.7843 8.86759C42.7726 8.88664 42.7664 8.90909 42.7662 8.93214C42.7709 12.3979 42.7713 16.6199 42.7677 21.598C42.7687 21.8572 42.6558 21.9863 42.4292 21.9853C41.4784 21.9843 40.8289 21.9857 40.4809 21.9897C40.2398 21.9925 40 21.8943 40 21.6319C40 18.0849 40.0059 12.9767 40.0177 6.30715C40.0181 6.22767 40.048 6.15158 40.1004 6.09551C40.1531 6.03944 40.2243 6.00797 40.2987 6.00797C42.2506 6.00114 44.1543 5.99869 46.0095 6.00066Z" fill="black"/>
<path d="M114.124 11.1813C114.113 11.1881 114.104 11.1974 114.098 11.2091C112.463 14.2366 111.227 16.4837 110.389 17.9506C109.717 19.1274 109.022 20.3838 108.304 21.7198C108.261 21.7997 108.198 21.8664 108.122 21.913C108.046 21.9595 107.96 21.9843 107.871 21.9849C107.523 21.9877 106.698 21.9887 105.396 21.9877C105.059 21.9877 105.007 21.711 105.007 21.4004C104.996 16.4998 104.998 11.5392 105.014 6.51849C105.017 5.91789 105.362 6.00432 105.813 6.00432C106.165 6.00528 106.715 6.01016 107.463 6.01895C107.708 6.0219 107.831 6.13615 107.832 6.36174C107.852 11.6129 107.837 15.2293 107.789 17.2108C107.788 17.2185 107.79 17.2261 107.793 17.233C107.797 17.2399 107.801 17.2459 107.807 17.2506C107.813 17.2553 107.82 17.2585 107.827 17.26C107.834 17.2615 107.842 17.2612 107.849 17.2591C107.901 17.2435 107.946 17.1996 107.984 17.1273C109.065 15.0413 111.003 11.4259 113.798 6.28119C113.839 6.20688 113.897 6.1451 113.968 6.10213C114.039 6.05916 114.12 6.03651 114.201 6.03653C114.969 6.03555 115.778 6.03165 116.629 6.02482C116.877 6.0219 117.001 6.14933 117 6.40716C116.99 9.83404 116.99 14.8386 117 21.4209C117 22.0772 116.649 21.9951 116.149 21.9981C115.244 22.0019 114.691 21.9955 114.491 21.9791C114.277 21.9605 114.17 21.8364 114.169 21.6069C114.159 18.2201 114.168 14.759 114.196 11.2237C114.196 11.2149 114.194 11.2061 114.19 11.1983C114.186 11.1906 114.18 11.1841 114.172 11.1797C114.165 11.1753 114.157 11.1732 114.148 11.1734C114.14 11.1737 114.131 11.1764 114.124 11.1813Z" fill="black"/>
<path d="M124.001 6C125.848 6 127.713 6.00245 129.597 6.00734C129.868 6.00734 130.003 6.15658 130 6.45505C129.99 7.28685 129.985 7.94985 129.985 8.44404C129.985 8.68478 129.862 8.80906 129.619 8.81688C129.16 8.83059 127.801 8.83059 125.54 8.81688C125.518 8.81688 125.496 8.82585 125.48 8.84182C125.464 8.85777 125.455 8.87944 125.455 8.90202C125.45 13.0591 125.452 17.3096 125.461 21.6535C125.461 21.865 125.336 21.9749 125.087 21.9837C124.796 21.9946 124.435 22 124.004 22C123.572 22 123.211 21.995 122.921 21.9854C122.67 21.9755 122.545 21.865 122.545 21.6535C122.553 17.3096 122.553 13.0591 122.547 8.90202C122.547 8.87944 122.538 8.85777 122.522 8.84182C122.505 8.82585 122.484 8.81688 122.461 8.81688C120.2 8.83155 118.841 8.83205 118.383 8.81835C118.139 8.8115 118.017 8.6877 118.016 8.44697C118.016 7.95278 118.011 7.2898 118 6.458C117.997 6.15951 118.131 6.00979 118.403 6.00881C120.287 6.00393 122.153 6.00098 124.001 6Z" fill="black"/>
<path d="M76.1658 6.00174C78.287 6.04688 80.3042 6.93282 81.7732 8.46463C83.2419 9.99636 84.0423 12.0487 83.9988 14.1697C83.9771 15.2199 83.7487 16.2559 83.3269 17.2176C82.9049 18.1794 82.2967 19.0492 81.5388 19.7762C80.7808 20.5029 79.8874 21.0735 78.9089 21.4549C77.9302 21.8362 76.8851 22.021 75.8347 21.9988C73.7139 21.9535 71.697 21.0675 70.2283 19.5359C68.7592 18.0041 67.958 15.9511 68.0017 13.8299C68.0234 12.7796 68.2526 11.7438 68.6745 10.782C69.0965 9.82029 69.7038 8.95125 70.4617 8.2244C71.2198 7.49748 72.1139 6.927 73.0925 6.54569C74.0711 6.16446 75.1155 5.97943 76.1658 6.00174ZM76.4431 9.02225C75.1224 8.892 73.8087 9.34388 72.7917 10.2791C71.7749 11.2142 71.1377 12.5559 71.0203 14.0086C70.9029 15.4613 71.315 16.9068 72.1658 18.0262C73.0169 19.1456 74.2376 19.848 75.5583 19.9783C76.8792 20.1085 78.1928 19.6557 79.2097 18.7205C80.2265 17.7853 80.8638 16.4437 80.9812 14.991C81.0984 13.5382 80.6866 12.0928 79.8357 10.9734C78.9846 9.85403 77.764 9.15253 76.4431 9.02225Z" fill="black"/>
<path d="M60.7969 6.01282C62.384 6.03239 63.6521 6.562 64.6006 7.60168C66.3497 9.52181 66.4936 12.7123 64.8369 14.7628C63.6661 16.2109 62.1538 16.7364 60.3193 16.6866C59.8936 16.6749 59.0773 16.6701 57.8711 16.672C57.8555 16.672 57.8401 16.678 57.8291 16.6896C57.8182 16.7011 57.8125 16.7173 57.8125 16.7335C57.7984 18.1552 57.7952 19.7657 57.8027 21.5646C57.8055 22.0333 57.4475 21.988 57.04 21.9894C56.0526 21.9934 55.52 21.9971 55.4424 22.0001C55.066 22.0117 55.0001 21.7784 55 21.4181C55 13.7552 55.0032 8.74963 55.0107 6.40246C55.0121 5.96876 55.3121 6.00644 55.6719 6.005C57.9119 5.99621 59.6204 5.99913 60.7969 6.01282ZM58.0713 9.00012C58.0524 9.00017 58.0338 9.0085 58.0205 9.02356C58.0073 9.03854 58.0001 9.05907 58 9.0802V13.92C58.0001 13.9412 58.0073 13.9617 58.0205 13.9767C58.0338 13.9918 58.0524 14.0001 58.0713 14.0001H60.7803C61.369 14.0001 61.9333 13.7432 62.3496 13.2863C62.7659 12.8293 63 12.2098 63 11.5636V11.4366C63 10.7905 62.7659 10.1709 62.3496 9.71399C61.9333 9.25708 61.369 9.00012 60.7803 9.00012H58.0713Z" fill="black"/>
<path d="M94.8554 6.00001C95.2546 5.99869 95.4017 6.09093 95.4032 6.47462C95.4032 6.8191 95.3933 7.25425 95.3749 7.77931C95.3745 7.79012 95.3767 7.80151 95.3807 7.81154C95.3849 7.82148 95.3914 7.83044 95.3993 7.8379C95.4074 7.84534 95.4171 7.85082 95.4276 7.85451C95.4382 7.85816 95.4496 7.86018 95.4608 7.85939C97.6524 7.70293 99.5824 8.13729 101.162 9.67384C102.562 11.0354 103.162 12.7131 102.963 14.7061C102.671 17.6031 100.317 19.9152 97.2089 20.1777C96.7082 20.2197 96.1291 20.2327 95.4716 20.2178C95.4614 20.2174 95.4509 20.2192 95.4413 20.2227C95.4319 20.2261 95.4231 20.2316 95.4159 20.2383C95.4086 20.2451 95.4023 20.2529 95.3983 20.2617C95.3943 20.2707 95.3925 20.2813 95.3925 20.291V21.6885C95.3925 21.7294 95.3843 21.7708 95.3681 21.8086C95.352 21.8463 95.3277 21.8805 95.2977 21.9092C95.2679 21.9381 95.2322 21.961 95.1932 21.9766C95.1541 21.9922 95.1125 22 95.0702 22H92.8563C92.7716 21.9999 92.6905 21.9679 92.6307 21.9102C92.5707 21.8523 92.537 21.7733 92.537 21.6914V20.3399C92.537 20.3246 92.5332 20.3091 92.5272 20.2949C92.521 20.2811 92.512 20.2686 92.5009 20.2578C92.4895 20.2472 92.4765 20.2382 92.4618 20.2324C92.447 20.2265 92.431 20.2236 92.4149 20.2236C91.7087 20.2254 91.297 20.2254 91.1796 20.2236C87.92 20.1706 85.1762 17.6751 85.0106 14.5781C84.848 11.5302 86.5582 9.00315 89.6434 8.084C90.511 7.82557 91.5636 7.82184 92.4413 7.84279C92.4522 7.84294 92.4634 7.84073 92.4735 7.83693C92.4836 7.83307 92.4931 7.82755 92.5009 7.82033C92.5087 7.81319 92.5143 7.80429 92.5184 7.79494C92.5226 7.78545 92.5252 7.77494 92.5253 7.76466L92.537 6.32423C92.5374 6.28136 92.5467 6.23861 92.5643 6.19923C92.582 6.15997 92.6076 6.12445 92.6395 6.09474C92.6715 6.06504 92.7093 6.04192 92.7509 6.02638C92.7923 6.01084 92.8373 6.00279 92.8817 6.00392C92.8997 6.00389 93.5579 6.00277 94.8554 6.00001ZM91.8046 11C90.7955 11.0001 89.8277 11.3647 89.1141 12.0137C88.4007 12.6627 88 13.5431 87.9999 14.461V14.5391C88 15.4569 88.4007 16.3373 89.1141 16.9863C89.8277 17.6354 90.7955 18 91.8046 18H92.9042C92.9294 18 92.9538 17.9908 92.9716 17.9746C92.9895 17.9583 92.9998 17.9361 92.9999 17.9131V11.0869C92.9998 11.0639 92.9895 11.0417 92.9716 11.0254C92.9538 11.0092 92.9294 11.0001 92.9042 11H91.8046ZM95.0858 10C95.063 10.0001 95.0415 10.0087 95.0253 10.0235C95.0093 10.0383 94.9999 10.0582 94.9999 10.0791V16.9209C94.9999 16.9418 95.0093 16.9618 95.0253 16.9766C95.0415 16.9913 95.063 16.9999 95.0858 17H96.2802C97.2667 17 98.2125 16.6402 98.91 16C99.6078 15.3598 99.9999 14.4914 99.9999 13.586V13.4141C99.9999 12.5086 99.6078 11.6403 98.91 11C98.2125 10.3599 97.2667 10 96.2802 10H95.0858Z" fill="black"/>
</g>
<defs>
<radialGradient id="paint0_radial_85_110" cx="0" cy="0" r="1" gradientUnits="userSpaceOnUse" gradientTransform="translate(16 6.97783) rotate(90) scale(28.0222 25.6202)">
<stop stop-color="#09BDFF"/>
<stop offset="1" stop-color="#007BFF"/>
</radialGradient>
<clipPath id="clip0_85_110">
<rect width="130" height="35" fill="white"/>
</clipPath>
</defs>
</svg>
